<?xml version="1.0" encoding="UTF-8"?>
<svg width="36px" height="36px" viewBox="0 0 36 36" version="1.1" xmlns="http://www.w3.org/2000/svg" xmlns:xlink="http://www.w3.org/1999/xlink">
    <!-- Generator: Sketch 49.3 (51167) - http://www.bohemiancoding.com/sketch -->
    <title>icon_social_FB</title>
    <desc>Created with Sketch.</desc>
    <defs></defs>
    <g id="Design" stroke="none" stroke-width="1" fill="none" fill-rule="evenodd">
        <g id="HP-footer-b_D_v1" transform="translate(-610.000000, -907.000000)" fill="#FFFFFF">
            <g id="_Footer" transform="translate(0.000000, 576.000000)">
                <g id="icons" transform="translate(610.000000, 331.000000)">
                    <path d="M17.0858427,35.977192 C7.56873091,35.501192 0,27.6343981 0,18 C0,8.05906314 8.05802332,0 18,0 C27.9419767,0 36,8.05906314 36,18 C36,26.5428914 30.0490862,33.6960041 22.065618,35.5389993 L22.065618,23.5967041 L26.2244195,23.5967041 L26.8464419,18.7691386 L22.0668165,18.7691386 L22.0668165,15.6865918 C22.0668165,14.2891386 22.4587266,13.3363296 24.4638202,13.3363296 L27.0190262,13.3363296 L27.0190262,9.02172285 C25.7817728,8.89044373 24.5382735,8.82682841 23.2940824,8.83116105 C19.6086891,8.83116105 17.0858427,11.0807491 17.0858427,15.211985 L17.0858427,18.7727341 L12.9174532,18.7727341 L12.9174532,23.6002996 L17.0858427,23.6002996 L17.0858427,35.977192 Z" id="icon_social_FB"></path>
                </g>
            </g>
        </g>
    </g>
</svg>