<?xml version="1.0" encoding="UTF-8"?>
<svg width="36px" height="36px" viewBox="0 0 36 36" version="1.1" xmlns="http://www.w3.org/2000/svg" xmlns:xlink="http://www.w3.org/1999/xlink">
    <!-- Generator: Sketch 49.3 (51167) - http://www.bohemiancoding.com/sketch -->
    <title>icon_social_IG</title>
    <desc>Created with Sketch.</desc>
    <defs></defs>
    <g id="Design" stroke="none" stroke-width="1" fill="none" fill-rule="evenodd">
        <g id="HP-footer-b_D_v1" transform="translate(-655.000000, -907.000000)" fill="#FFFFFF">
            <g id="_Footer" transform="translate(0.000000, 576.000000)">
                <g id="icons" transform="translate(610.000000, 331.000000)">
                    <path d="M62.99995,35.9999 C53.0580009,35.9999 45,27.9408592 45,17.99995 C45,8.05904075 53.0580009,0 62.99995,0 C72.9418991,0 80.9999,8.05904075 80.9999,17.99995 C80.9999,27.9408592 72.9418991,35.9999 62.99995,35.9999 Z M62.7213333,7.55851795 C59.81,7.55851795 59.4455897,7.57205641 58.3027179,7.62451795 C57.1626667,7.6792359 56.3842051,7.85749231 55.6993846,8.12431282 C54.9959487,8.39395385 54.3951795,8.76287692 53.8011795,9.35856923 C53.2060513,9.95538974 52.841641,10.5527744 52.5641026,11.2595949 C52.3006667,11.9410308 52.1190256,12.7200564 52.066,13.8629282 C52.0118462,15.0058 52,15.3702103 52,18.2815436 C52,21.193441 52.0118462,21.5572872 52.066,22.700159 C52.1190256,23.8402103 52.2972821,24.6192359 52.5641026,25.3040564 C52.8382564,26.0035436 53.2060513,26.6048769 53.8011795,27.1971846 C54.3985641,27.7940051 54.9959487,28.1578513 55.7027692,28.4342615 C56.3842051,28.6988256 57.1626667,28.8810308 58.3061026,28.9340564 C59.4489744,28.9882103 59.8133846,29.0000564 62.7247179,29.0000564 C65.6366154,29.0000564 65.9998974,28.9882103 67.1438974,28.9340564 C68.2833846,28.8810308 69.0624103,28.7022103 69.7472308,28.4342615 C70.4472821,28.1612359 71.0480513,27.7940051 71.6414872,27.1971846 C72.2371795,26.6014923 72.6015897,26.0035436 72.8791282,25.2972872 C73.1425641,24.6158513 73.3242051,23.8373897 73.3772308,22.6933897 C73.4313846,21.5505179 73.4432308,21.1866718 73.4432308,18.2747744 C73.4432308,15.363441 73.4313846,14.9995949 73.3772308,13.856159 C73.3242051,12.7166718 73.1459487,11.9376462 72.8791282,11.2522615 C72.6049744,10.5527744 72.2371795,9.95200513 71.6414872,9.35856923 C71.0446667,8.76287692 70.4472821,8.39733846 69.7404615,8.12092821 C69.0590256,7.85749231 68.28,7.67585128 67.1371282,7.62169744 C65.9970769,7.57205641 65.6332308,7.55851795 62.7213333,7.55851795 Z M62.7213333,9.49056923 C65.5818974,9.49056923 65.9226154,9.50072308 67.0525128,9.55318462 C68.0977949,9.59944103 68.6669744,9.77713333 69.044359,9.9243641 C69.5424615,10.1189795 69.9017949,10.3508256 70.2752308,10.7248256 C70.6492308,11.0988256 70.8805128,11.4559026 71.0762564,11.9556974 C71.2229231,12.3325179 71.3949744,12.9022615 71.4463077,13.9469795 C71.4965128,15.0768769 71.5094872,15.4164667 71.5094872,18.278159 C71.5094872,21.1387231 71.4998974,21.4777487 71.4463077,22.6093385 C71.398359,23.6546205 71.2229231,24.2238 71.0762564,24.5994923 C70.8805128,25.0992872 70.6492308,25.4580564 70.2752308,25.8320564 C69.9017949,26.2043641 69.5424615,26.4373385 69.044359,26.6330821 C68.6669744,26.7797487 68.0977949,26.9518 67.0525128,27.0031333 C65.9226154,27.0527744 65.5818974,27.0657487 62.7213333,27.0657487 C59.8613333,27.0657487 59.5206154,27.056159 58.3907179,27.0031333 C57.3454359,26.9551846 56.7762564,26.7797487 56.3988718,26.6330821 C55.9007692,26.4373385 55.5414359,26.2043641 55.168,25.8320564 C54.794,25.4580564 54.5627179,25.0992872 54.3669744,24.5994923 C54.2203077,24.2238 54.0482564,23.6546205 53.996359,22.6093385 C53.9467179,21.4777487 53.9337436,21.1387231 53.9337436,18.278159 C53.9337436,15.4164667 53.9433333,15.0768769 53.996359,13.9469795 C54.0448718,12.9022615 54.2203077,12.3325179 54.3669744,11.9556974 C54.5627179,11.4559026 54.794,11.0988256 55.168,10.7248256 C55.5414359,10.3508256 55.9007692,10.1189795 56.3988718,9.9243641 C56.7762564,9.77713333 57.3454359,9.60282564 58.3907179,9.55318462 C59.5206154,9.50072308 59.8613333,9.49056923 62.7213333,9.49056923 Z M62.4997183,13 C59.4624763,13 57,15.4620389 57,18.5 C57,21.5373975 59.4624763,24 62.4997183,24 C65.5375237,24 68,21.5373975 68,18.5 C68,15.4620389 65.5375237,13 62.4997183,13 Z M62.4997183,22.0699283 C60.5303007,22.0699283 58.9305363,20.4734631 58.9305363,18.5 C58.9305363,16.5265369 60.5303007,14.9306352 62.4997183,14.9306352 C64.4696993,14.9306352 66.0694637,16.5265369 66.0694637,18.5 C66.0694637,20.4734631 64.4696993,22.0699283 62.4997183,22.0699283 Z M68.5003287,11 C67.6706114,11 67,11.6708279 67,12.4986859 C67,13.3278581 67.6706114,14 68.5003287,14 C69.3293886,14 70,13.3278581 70,12.4986859 C70,11.6708279 69.3293886,11 68.5003287,11 Z" id="icon_social_IG"></path>
                </g>
            </g>
        </g>
    </g>
</svg>